<svg width="32" height="32" viewBox="0 0 32 32" fill="none" xmlns="http://www.w3.org/2000/svg">
  <rect width="32" height="32" rx="8" fill="#ebe9e1"/>
  <path d="M16 8C11.5817 8 8 11.5817 8 16C8 20.4183 11.5817 24 16 24C20.4183 24 24 20.4183 24 16C24 11.5817 20.4183 8 16 8ZM16 10C19.3376 10 22 12.6624 22 16C22 19.3376 19.3376 22 16 22C12.6624 22 10 19.3376 10 16C10 12.6624 12.6624 10 16 10Z" fill="#d97706"/>
  <path d="M16 14C15.4477 14 15 14.4477 15 15V17C15 17.5523 15.4477 18 16 18C16.5523 18 17 17.5523 17 17V15C17 14.4477 16.5523 14 16 14Z" fill="#d97706"/>
  <circle cx="16" cy="12" r="1" fill="#d97706"/>
</svg>
