<svg xmlns="http://www.w3.org/2000/svg" width="225" height="225" version="1.1"><path fill="#FDFDFE" d="M0 0 C74.25 0 148.5 0 225 0 C225 74.25 225 148.5 225 225 C150.75 225 76.5 225 0 225 C0 150.75 0 76.5 0 0 Z" transform="translate(0,0)"/><path fill="#5D86F4" d="M0 0 C5.7609718 5.14055945 10.7812178 10.53120063 15 17 C16.98 16.67 18.96 16.34 21 16 C21.07347656 14.51886719 21.07347656 14.51886719 21.1484375 13.0078125 C21.22320312 11.72648437 21.29796875 10.44515625 21.375 9.125 C21.44460937 7.84882813 21.51421875 6.57265625 21.5859375 5.2578125 C22 2 22 2 24 0 C26.58203125 -0.25878906 26.58203125 -0.25878906 29.8125 -0.265625 C30.97007812 -0.26820312 32.12765625 -0.27078125 33.3203125 -0.2734375 C34.53460938 -0.26570313 35.74890625 -0.25796875 37 -0.25 C38.21429688 -0.25773437 39.42859375 -0.26546875 40.6796875 -0.2734375 C42.41605469 -0.26957031 42.41605469 -0.26957031 44.1875 -0.265625 C45.78658203 -0.26224121 45.78658203 -0.26224121 47.41796875 -0.25878906 C50 0 50 0 52 2 C52.30059943 4.36509361 52.49515012 6.74441881 52.625 9.125 C52.73714844 11.04699219 52.73714844 11.04699219 52.8515625 13.0078125 C52.90054688 13.99523437 52.94953125 14.98265625 53 16 C55.07772471 16.86772029 57.16243177 17.71873619 59.25 18.5625 C60.99023438 19.27599609 60.99023438 19.27599609 62.765625 20.00390625 C66.50456864 21.19626251 66.50456864 21.19626251 70 20 C71.85433844 18.27011381 73.46043977 16.41104742 75.12109375 14.49609375 C77 13 77 13 79.36816406 12.69873047 C82.65833548 13.07536048 83.65719194 14.01353923 85.98828125 16.32421875 C86.69404297 17.02353516 87.39980469 17.72285156 88.12695312 18.44335938 C88.84818359 19.18392578 89.56941406 19.92449219 90.3125 20.6875 C91.42334961 21.7693457 91.42334961 21.7693457 92.55664062 22.87304688 C93.25595703 23.57880859 93.95527344 24.28457031 94.67578125 25.01171875 C95.6335144 25.97791138 95.6335144 25.97791138 96.6105957 26.96362305 C98.35284598 29.51714783 98.40702185 30.96694038 98 34 C96.05750073 36.24428799 93.91399199 38.01993158 91.65234375 39.9375 C89.72421711 41.87607117 89.72421711 41.87607117 90.125 44.42578125 C91.02004231 47.05896375 91.98091463 49.62503431 93.0625 52.1875 C95 56.78647687 95 56.78647687 95 59 C96.48113281 58.96519531 96.48113281 58.96519531 97.9921875 58.9296875 C99.91417969 58.90261719 99.91417969 58.90261719 101.875 58.875 C103.15117187 58.85179688 104.42734375 58.82859375 105.7421875 58.8046875 C109 59 109 59 111 61 C111.25878906 63.58203125 111.25878906 63.58203125 111.265625 66.8125 C111.26820313 67.97007813 111.27078125 69.12765625 111.2734375 70.3203125 C111.26570312 71.53460938 111.25796875 72.74890625 111.25 74 C111.25773438 75.21429688 111.26546875 76.42859375 111.2734375 77.6796875 C111.27085937 78.83726563 111.26828125 79.99484375 111.265625 81.1875 C111.26336914 82.25355469 111.26111328 83.31960937 111.25878906 84.41796875 C111 87 111 87 109 89 C105.7421875 89.1953125 105.7421875 89.1953125 101.875 89.125 C99.95300781 89.09792969 99.95300781 89.09792969 97.9921875 89.0703125 C97.00476563 89.04710938 96.01734375 89.02390625 95 89 C94.34 91.31 93.68 93.62 93 96 C91.68 96.33 90.36 96.66 89 97 C89.11442461 95.39504433 89.24194694 93.79101881 89.375 92.1875 C89.47941406 90.84751953 89.47941406 90.84751953 89.5859375 89.48046875 C90 87 90 87 92 84 C94.64581609 83.77703797 96.99279502 83.71851248 99.625 83.8125 C102.05875 83.874375 104.4925 83.93625 107 84 C107 77.4 107 70.8 107 64 C102.15305724 64.11853684 102.15305724 64.11853684 97.30712891 64.27026367 C95.53592981 64.2922324 93.76507917 64.14874263 92 64 C90.25992391 61.38988587 89.50307489 59.73080772 88.625 56.8125 C87.37434661 52.8337374 85.71036451 49.39945218 83.57421875 45.82421875 C83 44 83 44 83.66796875 42.00390625 C85.13113537 39.8027201 86.72201076 38.08250816 88.625 36.25 C89.25664062 35.63640625 89.88828125 35.0228125 90.5390625 34.390625 C91.02117187 33.93171875 91.50328125 33.4728125 92 33 C90.41332422 29.09714233 87.86649519 26.66479018 84.875 23.75 C83.96492187 22.85796875 83.05484375 21.9659375 82.1171875 21.046875 C81.41851562 20.37140625 80.71984375 19.6959375 80 19 C76.78475695 20.40844718 74.67816132 22.10344786 72.25 24.625 C71.32960937 25.57246094 71.32960937 25.57246094 70.390625 26.5390625 C69.93171875 27.02117188 69.4728125 27.50328125 69 28 C68.34515625 27.73316406 67.6903125 27.46632812 67.015625 27.19140625 C64.70010363 26.27659535 62.38134004 25.39140619 60.046875 24.52734375 C59.345625 24.26759766 58.644375 24.00785156 57.921875 23.74023438 C56.45894012 23.19952733 54.99538432 22.66049759 53.53125 22.12304688 C48.11024945 20.11024945 48.11024945 20.11024945 47 19 C46.92679837 16.4672235 46.90772431 13.96896082 46.9375 11.4375 C46.958125 8.983125 46.97875 6.52875 47 4 C40.4 4 33.8 4 27 4 C27 8.95 27 13.9 27 19 C24.36 19.99 21.72 20.98 19 22 C19.61535775 25.9382896 20.8637615 29.37416055 22.37890625 33.03515625 C23 35 23 35 23 39 C24.0725 38.67 25.145 38.34 26.25 38 C36.24939919 35.57056851 45.70390404 36.62611671 55 41 C58.30546278 43.02078647 61.4487793 45.06223071 64 48 C64 49.32 64 50.64 64 52 C60.8841873 51.64390712 59.22113175 51.17813391 56.75 49.1875 C48.43128348 42.57033913 40.41329989 42.3011977 30 43 C27.99492817 43.30132718 25.99233775 43.62356752 24 44 C24.04640625 45.26972656 24.0928125 46.53945313 24.140625 47.84765625 C24.57168957 64.64278402 21.59284268 77.49816839 13 92 C12.67 92.66 12.34 93.32 12 94 C18.80584205 101.44388974 26.49948012 105.87379161 36.75 106.375 C46.64563438 106.09012568 53.85079665 102.16197179 60.8984375 95.3828125 C66.40841936 89.13543529 68.19497691 82.49971614 68.1875 74.3125 C68.1884668 73.23645508 68.1884668 73.23645508 68.18945312 72.13867188 C68.13896253 67.08502198 67.59217555 62.77652664 66 58 C67.32 57.67 68.64 57.34 70 57 C75.0263315 65.27998359 75.20457836 74.25037913 73.52734375 83.6484375 C70.52445417 93.89782109 63.48793526 102.22572249 54.34765625 107.54296875 C44.64296989 112.19340235 34.41474562 112.55752441 24.125 109.5 C22.74684075 109.00877492 21.3706811 108.51172094 20 108 C19.67 108 19.34 108 19 108 C20.4354503 109.77249524 21.87343803 111.54293576 23.3125 113.3125 C24.11300781 114.29863281 24.91351563 115.28476563 25.73828125 116.30078125 C26.48464844 117.19152344 27.23101562 118.08226562 28 119 C28.50273437 119.61488281 29.00546875 120.22976562 29.5234375 120.86328125 C31.56622717 122.43590504 32.78796789 122.14532986 35.3125 121.875 C38.91778795 121.73361616 40.75030872 122.07168142 43.5625 124.375 C46 127 46 127 46 129 C48.8959906 127.87540455 51.79176416 126.75025125 54.6875 125.625 C55.50412109 125.30789062 56.32074219 124.99078125 57.16210938 124.6640625 C57.95810547 124.3546875 58.75410156 124.0453125 59.57421875 123.7265625 C60.30213623 123.44377441 61.03005371 123.16098633 61.7800293 122.86962891 C64.19139689 121.92502411 66.59544758 120.96182097 69 120 C71.97 122.97 74.94 125.94 78 129 C82.01987409 126.99006295 84.14516995 125.06153611 87.25 121.875 C88.14203125 120.96492187 89.0340625 120.05484375 89.953125 119.1171875 C90.62859375 118.41851562 91.3040625 117.71984375 92 117 C91.60167969 116.54109375 91.20335937 116.0821875 90.79296875 115.609375 C89.18554015 113.7477302 87.59200008 111.87484273 86 110 C85.360625 109.2575 84.72125 108.515 84.0625 107.75 C83.711875 107.1725 83.36125 106.595 83 106 C83.33 105.01 83.66 104.02 84 103 C88.20979867 103.51147087 90.31050432 105.84488438 93.25 108.75 C94.14203125 109.61109375 95.0340625 110.4721875 95.953125 111.359375 C98 114 98 114 98.33349609 116.41577148 C97.70868883 121.25734169 93.73064675 124.02443633 90.375 127.3125 C89.66214844 128.05306641 88.94929687 128.79363281 88.21484375 129.55664062 C82.96408591 134.78331242 82.96408591 134.78331242 78.75 135.73046875 C75.3593308 134.82982224 73.96894483 133.58642188 71.625 131 C70.59246094 129.88625 70.59246094 129.88625 69.5390625 128.75 C68.77722656 127.88375 68.77722656 127.88375 68 127 C66.824375 127.4021875 66.824375 127.4021875 65.625 127.8125 C61.10760831 129.29233521 56.55729662 130.64902274 52 132 C53.40839495 136.29445018 55.45854776 138.87046479 58.5625 142.125 C62.03919781 145.84646533 65.36495561 149.59371692 68.5625 153.5625 C71.46665009 157.16200997 74.44502057 160.64608418 77.5625 164.0625 C89.17525456 176.92020716 89.17525456 176.92020716 91.4375 182.625 C90.74627105 187.95733758 87.84313593 190.4225471 84 194 C83.50532227 194.46583496 83.01064453 194.93166992 82.50097656 195.41162109 C80.85430746 196.94450407 79.18352192 198.44523237 77.5 199.9375 C76.96681152 200.42250977 76.43362305 200.90751953 75.88427734 201.40722656 C72.03670812 204.6957673 69.06354738 205.93416191 64 206 C58.28189947 203.50568454 54.0899611 196.58740884 50.3203125 191.859375 C48.12530146 189.1544119 45.8497254 186.57077971 43.5 184 C39.58231158 179.70142521 35.91032858 175.24390195 32.25390625 170.72265625 C30.04853296 168.05862647 27.7682369 165.49211558 25.4375 162.9375 C11.72959862 147.7600345 11.72959862 147.7600345 12 141 C12.62194211 139.64522687 13.28181504 138.30630493 14 137 C12.7315625 135.54980469 12.7315625 135.54980469 11.4375 134.0703125 C5.12738408 126.83522161 -1.09960315 119.57603825 -7 112 C-11.14203778 113.33733955 -15.15773066 114.85805672 -19.1875 116.5 C-37.01861126 123.35345433 -54.96918361 122.23639609 -72.41796875 114.73046875 C-77.36388752 112.34110995 -81.70863526 109.41289713 -86 106 C-85.67 104.68 -85.34 103.36 -85 102 C-80.94723248 102.660451 -77.76773208 104.79172566 -74.3125 106.875 C-59.77937111 115.40359238 -43.58200447 117.44827379 -27.1875 113.375 C-9.58222656 107.99664479 3.80505852 97.66408111 12.625 81.375 C20.10583179 65.46915377 21.60909128 48.44049694 15.8828125 31.7421875 C9.84611317 16.2241186 -0.24573429 4.08082413 -15.375 -3.3125 C-30.91789216 -9.94533886 -48.84201542 -12.05638743 -65 -6 C-81.00643948 0.59572153 -92.66426485 11.35325856 -100 27 C-106.42445999 42.75424901 -107.54323153 59.31733429 -101.5 75.45703125 C-97.95021259 84.20456735 -97.95021259 84.20456735 -92.30078125 91.625 C-91.87152344 92.07875 -91.44226563 92.5325 -91 93 C-91.3125 95.6875 -91.3125 95.6875 -92 98 C-99.21367144 95.02317925 -102.66939305 87.18849159 -105.53173828 80.3269043 C-112.10920766 63.88323085 -114.0542663 45.90135582 -107.21777344 29.07470703 C-98.70118967 9.37715975 -84.94281258 -4.08195761 -65 -12 C-42.75889171 -19.12001218 -18.23678676 -14.47844481 0 0 Z" transform="translate(113,17)"/><path fill="#37ACF4" d="M0 0 C5.7609718 5.14055945 10.7812178 10.53120063 15 17 C16.98 16.67 18.96 16.34 21 16 C21.07347656 14.51886719 21.07347656 14.51886719 21.1484375 13.0078125 C21.22320312 11.72648437 21.29796875 10.44515625 21.375 9.125 C21.44460937 7.84882813 21.51421875 6.57265625 21.5859375 5.2578125 C22 2 22 2 24 0 C26.58203125 -0.25878906 26.58203125 -0.25878906 29.8125 -0.265625 C30.97007812 -0.26820312 32.12765625 -0.27078125 33.3203125 -0.2734375 C34.53460938 -0.26570313 35.74890625 -0.25796875 37 -0.25 C38.21429688 -0.25773437 39.42859375 -0.26546875 40.6796875 -0.2734375 C42.41605469 -0.26957031 42.41605469 -0.26957031 44.1875 -0.265625 C45.78658203 -0.26224121 45.78658203 -0.26224121 47.41796875 -0.25878906 C50 0 50 0 52 2 C52.30059943 4.36509361 52.49515012 6.74441881 52.625 9.125 C52.73714844 11.04699219 52.73714844 11.04699219 52.8515625 13.0078125 C52.90054688 13.99523437 52.94953125 14.98265625 53 16 C55.07772471 16.86772029 57.16243177 17.71873619 59.25 18.5625 C60.99023438 19.27599609 60.99023438 19.27599609 62.765625 20.00390625 C66.50456864 21.19626251 66.50456864 21.19626251 70 20 C71.85433844 18.27011381 73.46043977 16.41104742 75.12109375 14.49609375 C77 13 77 13 79.36816406 12.69873047 C82.65833548 13.07536048 83.65719194 14.01353923 85.98828125 16.32421875 C86.69404297 17.02353516 87.39980469 17.72285156 88.12695312 18.44335938 C88.84818359 19.18392578 89.56941406 19.92449219 90.3125 20.6875 C91.42334961 21.7693457 91.42334961 21.7693457 92.55664062 22.87304688 C93.25595703 23.57880859 93.95527344 24.28457031 94.67578125 25.01171875 C95.6335144 25.97791138 95.6335144 25.97791138 96.6105957 26.96362305 C98.35284598 29.51714783 98.40702185 30.96694038 98 34 C96.05750073 36.24428799 93.91399199 38.01993158 91.65234375 39.9375 C89.72421711 41.87607117 89.72421711 41.87607117 90.125 44.42578125 C91.02004231 47.05896375 91.98091463 49.62503431 93.0625 52.1875 C95 56.78647687 95 56.78647687 95 59 C96.48113281 58.96519531 96.48113281 58.96519531 97.9921875 58.9296875 C99.91417969 58.90261719 99.91417969 58.90261719 101.875 58.875 C103.15117187 58.85179688 104.42734375 58.82859375 105.7421875 58.8046875 C109 59 109 59 111 61 C111.25878906 63.58203125 111.25878906 63.58203125 111.265625 66.8125 C111.26820313 67.97007813 111.27078125 69.12765625 111.2734375 70.3203125 C111.26570312 71.53460938 111.25796875 72.74890625 111.25 74 C111.25773438 75.21429688 111.26546875 76.42859375 111.2734375 77.6796875 C111.27085937 78.83726563 111.26828125 79.99484375 111.265625 81.1875 C111.26336914 82.25355469 111.26111328 83.31960937 111.25878906 84.41796875 C111 87 111 87 109 89 C105.7421875 89.1953125 105.7421875 89.1953125 101.875 89.125 C99.95300781 89.09792969 99.95300781 89.09792969 97.9921875 89.0703125 C97.00476563 89.04710938 96.01734375 89.02390625 95 89 C94.34 91.31 93.68 93.62 93 96 C91.68 96.33 90.36 96.66 89 97 C89.11442461 95.39504433 89.24194694 93.79101881 89.375 92.1875 C89.47941406 90.84751953 89.47941406 90.84751953 89.5859375 89.48046875 C90 87 90 87 92 84 C94.64581609 83.77703797 96.99279502 83.71851248 99.625 83.8125 C102.05875 83.874375 104.4925 83.93625 107 84 C107 77.4 107 70.8 107 64 C102.15305724 64.11853684 102.15305724 64.11853684 97.30712891 64.27026367 C95.53592981 64.2922324 93.76507917 64.14874263 92 64 C90.25992391 61.38988587 89.50307489 59.73080772 88.625 56.8125 C87.37434661 52.8337374 85.71036451 49.39945218 83.57421875 45.82421875 C83 44 83 44 83.66796875 42.00390625 C85.13113537 39.8027201 86.72201076 38.08250816 88.625 36.25 C89.25664062 35.63640625 89.88828125 35.0228125 90.5390625 34.390625 C91.02117187 33.93171875 91.50328125 33.4728125 92 33 C90.41332422 29.09714233 87.86649519 26.66479018 84.875 23.75 C83.96492187 22.85796875 83.05484375 21.9659375 82.1171875 21.046875 C81.41851562 20.37140625 80.71984375 19.6959375 80 19 C76.78475695 20.40844718 74.67816132 22.10344786 72.25 24.625 C71.32960937 25.57246094 71.32960937 25.57246094 70.390625 26.5390625 C69.93171875 27.02117188 69.4728125 27.50328125 69 28 C68.34515625 27.73316406 67.6903125 27.46632812 67.015625 27.19140625 C64.70010363 26.27659535 62.38134004 25.39140619 60.046875 24.52734375 C59.345625 24.26759766 58.644375 24.00785156 57.921875 23.74023438 C56.45894012 23.19952733 54.99538432 22.66049759 53.53125 22.12304688 C48.11024945 20.11024945 48.11024945 20.11024945 47 19 C46.92679837 16.4672235 46.90772431 13.96896082 46.9375 11.4375 C46.958125 8.983125 46.97875 6.52875 47 4 C40.4 4 33.8 4 27 4 C27 8.95 27 13.9 27 19 C24.36 19.99 21.72 20.98 19 22 C19.61535775 25.9382896 20.8637615 29.37416055 22.37890625 33.03515625 C23 35 23 35 23 39 C24.0725 38.67 25.145 38.34 26.25 38 C36.24939919 35.57056851 45.70390404 36.62611671 55 41 C58.30546278 43.02078647 61.4487793 45.06223071 64 48 C64 49.32 64 50.64 64 52 C60.8841873 51.64390712 59.22113175 51.17813391 56.75 49.1875 C48.43128348 42.57033913 40.41329989 42.3011977 30 43 C27.99492817 43.30132718 25.99233775 43.62356752 24 44 C24.04640625 45.26972656 24.0928125 46.53945313 24.140625 47.84765625 C24.43060973 59.3306037 24.53472461 71.13129475 18.61328125 81.40625 C17 83 17 83 13 83 C13.18175781 82.40574219 13.36351563 81.81148438 13.55078125 81.19921875 C14.08664318 79.43224839 14.61314985 77.66242719 15.1328125 75.890625 C15.67663178 74.07789406 16.25040617 72.27359652 16.8671875 70.484375 C21.96625709 54.65297799 19.3300079 37.44512916 11.98632812 22.79345703 C3.29020021 6.98114127 -10.48766771 -2.72901335 -27.625 -7.875 C-44.7700887 -11.69512586 -61.97823104 -9.00493051 -77 0 C-91.76983711 10.20576727 -101.115086 24.40980436 -105 42 C-106.5813276 59.44664726 -103.87956352 75.2346414 -94 90 C-93.43925781 90.53625 -92.87851563 91.0725 -92.30078125 91.625 C-91.87152344 92.07875 -91.44226563 92.5325 -91 93 C-91.3125 95.6875 -91.3125 95.6875 -92 98 C-99.21367144 95.02317925 -102.66939305 87.18849159 -105.53173828 80.3269043 C-112.10920766 63.88323085 -114.0542663 45.90135582 -107.21777344 29.07470703 C-98.70118967 9.37715975 -84.94281258 -4.08195761 -65 -12 C-42.75889171 -19.12001218 -18.23678676 -14.47844481 0 0 Z" transform="translate(113,17)"/><path fill="#637EF4" d="M0 0 C11.7922869 8.20784727 20.82789178 19.22301574 24.75 33.25 C27.36728037 49.93122066 24.74686005 65.76835022 15.25 79.875 C8.99964036 87.46472242 2.24984372 92.9383595 -6.75 96.875 C-7.61496094 97.28621094 -8.47992188 97.69742188 -9.37109375 98.12109375 C-20.98478308 102.88188271 -35.58545125 102.72432374 -47.4375 98.8125 C-61.01699872 93.08214416 -72.23024215 83.15231842 -78.75 69.875 C-79.37068359 68.64136719 -79.37068359 68.64136719 -80.00390625 67.3828125 C-84.88305797 55.65244775 -84.96864429 39.43447897 -80.625 27.5 C-78.18241932 22.2708132 -75.26525068 17.44927557 -71.75 12.875 C-71.23050781 12.19179688 -70.71101563 11.50859375 -70.17578125 10.8046875 C-65.99625839 5.6039714 -65.99625839 5.6039714 -61.75 4.875 C-61.03125 6.6328125 -61.03125 6.6328125 -60.75 8.875 C-62.15625 10.7421875 -62.15625 10.7421875 -64.25 12.75 C-74.11705743 23.24024 -78.34000783 36.26078094 -78.05859375 50.48046875 C-76.95561251 62.61326241 -71.47701991 74.69205325 -62.6875 83.1875 C-54.50729998 89.87404575 -44.33502423 94.90308626 -33.75 95.875 C-32.60724609 95.99681641 -32.60724609 95.99681641 -31.44140625 96.12109375 C-19.73294868 96.75554219 -8.15555135 92.63634918 1.25 85.875 C2.301875 85.1325 3.35375 84.39 4.4375 83.625 C14.36694568 73.91620867 20.05374815 60.93151776 20.5625 47.0625 C20.225053 34.21966429 15.14375531 21.06488723 6.2890625 11.68359375 C-4.78263148 1.86329813 -17.37852511 -2.48317847 -31.96875 -2.421875 C-36.88907391 -2.03556858 -41.18008797 -0.74618043 -45.8125 0.90234375 C-48.78851912 1.88775434 -51.65046205 2.43682127 -54.75 2.875 C-54.61328125 0.55078125 -54.61328125 0.55078125 -53.75 -2.125 C-38.48445248 -11.95416812 -14.82622222 -8.74685077 0 0 Z" transform="translate(98.75,23.125)"/><path fill="#7676F4" d="M0 0 C5.94120534 1.30416703 9.2895885 4.38219973 13 9 C15.28257451 12.65479672 17 15.6442171 17 20 C17.71285156 19.71125 18.42570312 19.4225 19.16015625 19.125 C26.17320942 16.406616 31.77298544 14.4046821 39 17.5 C44.52864287 20.52246819 48.53975041 25.20647904 51.4375 30.75 C52 33 52 33 52 37 C53.5778125 37.1546875 53.5778125 37.1546875 55.1875 37.3125 C61.89432941 38.52192825 64.98929591 41.58012961 69 47 C71.51233458 51.42649426 71.65587927 56.03524297 71 61 C69.14587114 67.10641241 65.37173979 71.59554211 60 75 C56.33542842 76.23653674 52.7778262 76.12024095 48.93652344 76.11352539 C47.88226166 76.11374443 47.88226166 76.11374443 46.80670166 76.1139679 C44.49089437 76.11327299 42.17516819 76.10550038 39.859375 76.09765625 C38.25083459 76.09579057 36.64229362 76.09436737 35.03375244 76.09336853 C30.80544458 76.08955516 26.57717121 76.07973495 22.34887695 76.06866455 C18.03206855 76.05842506 13.71525456 76.05386547 9.3984375 76.04882812 C0.93227586 76.03811162 -7.53385778 76.02104937 -16 76 C-15.67 74.35 -15.34 72.7 -15 71 C-14.10908157 70.99413376 -13.21816315 70.98826752 -12.30024719 70.98222351 C-3.89870955 70.92428787 4.50256249 70.8522061 12.90384197 70.76428509 C17.22290362 70.71958289 21.54187097 70.68032652 25.86108398 70.65356445 C30.03042164 70.62752984 34.19939641 70.58712656 38.36850929 70.53681374 C39.95804132 70.52014604 41.54763612 70.50863114 43.13724327 70.50238609 C45.36621394 70.49274366 47.59425648 70.46468452 49.82299805 70.43237305 C51.09096725 70.42126999 52.35893646 70.41016693 53.66532898 70.39872742 C57.25928267 69.96899751 59.1330677 69.16807878 62 67 C65.28636777 62.24043289 65.80873944 57.61970229 65 52 C63.63002843 49.12853006 63.63002843 49.12853006 62 47 C62 46.34 62 45.68 62 45 C57.44508386 42.79600832 52.97093824 42.41153737 48 42 C47.90203125 41.43152344 47.8040625 40.86304688 47.703125 40.27734375 C46.54828449 34.31398629 45.252527 28.86290137 40.5 24.6796875 C35.95944531 21.67367213 31.33300883 21.01096927 26 22 C22.81029602 23.73983854 20.55304507 25.44695493 18 28 C15.375 27.625 15.375 27.625 13 27 C12.92523438 26.38253906 12.85046875 25.76507813 12.7734375 25.12890625 C11.62739221 17.74702631 9.12985389 11.46646107 3.2734375 6.55078125 C1.5024145 5.31756799 1.5024145 5.31756799 -1 4 C-0.67 2.68 -0.34 1.36 0 0 Z" transform="translate(61,144)"/><path fill="#FDFDFE" d="M0 0 C2.92407483 0.14188549 3.99810824 0.9982355 6.1484375 3.00390625 C8.45344619 5.65264431 10.74447744 8.30892826 13 11 C13.96679688 12.12148437 13.96679688 12.12148437 14.953125 13.265625 C15.78070313 14.27882812 15.78070313 14.27882812 16.625 15.3125 C17.35589844 16.20388672 17.35589844 16.20388672 18.1015625 17.11328125 C19 19 19 19 18.97265625 21.44921875 C17.65148078 24.91398814 15.74011694 26.25588877 12.8125 28.5 C11.31976563 29.65628906 11.31976563 29.65628906 9.796875 30.8359375 C8.41242188 31.90714844 8.41242188 31.90714844 7 33 C5.84804181 34.03488927 4.7006039 35.07489382 3.5625 36.125 C1 38 1 38 -0.8203125 37.97265625 C-4.09522454 36.51127077 -6.1237423 33.9636144 -8.4375 31.3125 C-8.90220703 30.79494141 -9.36691406 30.27738281 -9.84570312 29.74414062 C-12.98155439 26.23216215 -16.00163134 22.62960417 -19 19 C-17.64087445 15.88800719 -16.18124708 14.02042985 -13.59375 11.8359375 C-12.93246094 11.27132812 -12.27117187 10.70671875 -11.58984375 10.125 C-10.90019531 9.5475 -10.21054688 8.97 -9.5 8.375 C-8.13498673 7.21665229 -6.77038505 6.05781933 -5.40625 4.8984375 C-4.49842773 4.13539307 -4.49842773 4.13539307 -3.57226562 3.35693359 C-2.33524173 2.28932819 -1.15542404 1.15542404 0 0 Z" transform="translate(180,180)"/><path fill="#FCFDFE" d="M0 0 C3.91968943 1.56606529 6.14931907 4.07281406 8.9375 7.1875 C9.77152344 8.10917969 10.60554688 9.03085938 11.46484375 9.98046875 C14.17930716 13.21356616 16.58909209 16.53674588 19 20 C4.40318907 32.66970387 4.40318907 32.66970387 -3 38 C-5.46538651 35.30561514 -7.92509127 32.60650767 -10.37109375 29.89453125 C-11.90474842 28.20591593 -13.45281646 26.52980095 -15.03515625 24.88671875 C-18.9792781 20.68152028 -18.9792781 20.68152028 -19.0703125 17.6875 C-17.45873468 13.64091043 -14.5242788 11.56454432 -11.1875 8.875 C-10.55779297 8.35035156 -9.92808594 7.82570312 -9.27929688 7.28515625 C-6.24777834 4.77214509 -3.18048243 2.32327432 0 0 Z" transform="translate(149,143)"/><path fill="#8E48F4" d="M0 0 C-0.33 1.65 -0.66 3.3 -1 5 C-1.64066406 5.08636719 -2.28132813 5.17273438 -2.94140625 5.26171875 C-10.0601695 6.41811993 -15.00602566 8.13505131 -19.50390625 13.94140625 C-22.76931862 19.1418778 -23.60079792 23.71444754 -23.76171875 29.8125 C-23.87966797 30.8953125 -23.87966797 30.8953125 -24 32 C-26.38137093 33.19068546 -28.09692021 33.17180637 -30.75 33.3125 C-36.78958818 33.87816748 -40.13507556 35.97966519 -44.25 40.4375 C-48.10804181 46.08677551 -48.75211792 50.69241557 -47.5703125 57.4609375 C-46.00657562 63.88963357 -43.53600623 67.38492123 -38 71 C-34.828262 72.585869 -31.36486178 72.37866445 -27.875 72.5625 C-26.74384766 72.62727539 -26.74384766 72.62727539 -25.58984375 72.69335938 C-23.72678112 72.7994832 -21.86341476 72.90025001 -20 73 C-19.4375 74.9375 -19.4375 74.9375 -19 77 C-21.2368969 79.2368969 -26.61188926 78.37185555 -29.70654297 78.3828125 C-35.82359688 78.25199558 -40.31632937 77.15438589 -45 73 C-51.83079532 65.65059766 -53.76290332 58.78969395 -53.43359375 48.8046875 C-52.66040695 42.02014746 -49.93308919 37.39756704 -44.66796875 33.09375 C-39.11742784 29.29176398 -35.80896382 27.87390808 -29 28 C-28.97421875 27.443125 -28.9484375 26.88625 -28.921875 26.3125 C-28.2829195 17.71564415 -25.37728993 11.4721045 -19.0546875 5.54296875 C-13.32165382 1.23774384 -7.09316766 -0.61679719 0 0 Z" transform="translate(54,142)"/><path fill="#667DF4" d="M0 0 C1.33333333 0.66666667 2.66666667 1.33333333 4 2 C4 2.66 4 3.32 4 4 C2.41775101 5.08591613 0.78079588 6.0924146 -0.875 7.0625 C-16.88805553 17.05267328 -25.49177226 30.02240048 -30.53979492 47.91308594 C-34.22421155 64.62098691 -29.6499281 81.35566743 -21.4296875 95.86328125 C-20.09175758 98.02953474 -20.09175758 98.02953474 -18.30078125 99.625 C-17.87152344 100.07875 -17.44226563 100.5325 -17 101 C-17.3125 103.6875 -17.3125 103.6875 -18 106 C-25.21367144 103.02317925 -28.66939305 95.18849159 -31.53173828 88.3269043 C-38.10920766 71.88323085 -40.0542663 53.90135582 -33.21777344 37.07470703 C-26.37601702 21.25077759 -15.86482203 7.60189389 0 0 Z" transform="translate(39,9)"/><path fill="#44A2F4" d="M0 0 C11.7922869 8.20784727 20.82789178 19.22301574 24.75 33.25 C26.52612779 44.57013979 25.77024973 55.99994279 22.25 66.875 C20.6 66.545 18.95 66.215 17.25 65.875 C17.4665625 64.98039062 17.683125 64.08578125 17.90625 63.1640625 C21.7890057 46.30283636 20.29761972 32.95436619 11.25 17.875 C4.3081505 7.69710036 -7.29385932 1.18477862 -19.1328125 -1.70703125 C-28.50105757 -3.20315397 -36.91867621 -2.26267772 -45.8125 0.90234375 C-48.78851912 1.88775434 -51.65046205 2.43682127 -54.75 2.875 C-54.61328125 0.55078125 -54.61328125 0.55078125 -53.75 -2.125 C-38.48445248 -11.95416812 -14.82622222 -8.74685077 0 0 Z" transform="translate(98.75,23.125)"/><path fill="#FBFCFE" d="M0 0 C6.04522908 2.44852528 9.84047378 8.18426354 14 13 C14.4419873 13.50934082 14.88397461 14.01868164 15.33935547 14.54345703 C23 23.42912096 23 23.42912096 23 27 C21.46875 28.60546875 21.46875 28.60546875 19.5 30.1875 C18.8503125 30.71730469 18.200625 31.24710938 17.53125 31.79296875 C17.0259375 32.19128906 16.520625 32.58960938 16 33 C12.99317836 31.6729014 11.12828175 30.30954211 9.01171875 27.8046875 C8.47313232 27.1744165 7.9345459 26.54414551 7.37963867 25.89477539 C6.82123291 25.22824951 6.26282715 24.56172363 5.6875 23.875 C4.53135301 22.51683939 3.37510381 21.15876578 2.21875 19.80078125 C1.66574219 19.14674316 1.11273438 18.49270508 0.54296875 17.81884766 C-1.3852816 15.54583103 -3.34428081 13.30094601 -5.3125 11.0625 C-5.84488281 10.45535156 -6.37726563 9.84820312 -6.92578125 9.22265625 C-7.28027344 8.81917969 -7.63476562 8.41570312 -8 8 C-5.33333333 5.33333333 -2.66666667 2.66666667 0 0 Z" transform="translate(117,118)"/><path fill="#FBFCFE" d="M0 0 C3.98069267 2.87494471 6.43571997 5.82117329 9 10 C2.18630455 16.25204593 -4.79481861 22.20571915 -12 28 C-14.66666667 25.33333333 -17.33333333 22.66666667 -20 20 C-18.43815664 16.08184961 -15.93904114 13.89360608 -12.8125 11.125 C-11.34296875 9.81789062 -11.34296875 9.81789062 -9.84375 8.484375 C-6.58059575 5.63359738 -3.31057582 2.79559736 0 0 Z" transform="translate(170,166)"/><path fill="#48A3F4" d="M0 0 C1.953125 0.2421875 1.953125 0.2421875 4 1 C8.32323767 8.72006726 8.04268271 18.10015369 6.53125 26.65234375 C3.85051963 35.7317222 -2.16645676 43.74293776 -10 49 C-20.18442191 54.2885687 -20.18442191 54.2885687 -24.359375 53.625 C-24.90078125 53.41875 -25.4421875 53.2125 -26 53 C-25.80859375 51.10546875 -25.80859375 51.10546875 -25 49 C-22.84765625 48.05078125 -22.84765625 48.05078125 -20.0625 47.3125 C-11.9511111 44.6192654 -5.37392457 39.29961193 -1.4375 31.625 C0.54956126 26.61414987 1.19176533 22.65086722 1.1875 17.3125 C1.18886963 16.59441162 1.19023926 15.87632324 1.19165039 15.13647461 C1.14514903 10.07586395 0.4718737 5.80812076 -1 1 C-0.67 0.67 -0.34 0.34 0 0 Z" transform="translate(180,74)"/><path fill="#48A4F4" d="M0 0 C4.20979867 0.51147087 6.31050432 2.84488438 9.25 5.75 C10.14203125 6.61109375 11.0340625 7.4721875 11.953125 8.359375 C14 11 14 11 14.33349609 13.41577148 C13.70868883 18.25734169 9.73064675 21.02443633 6.375 24.3125 C5.66214844 25.05306641 4.94929688 25.79363281 4.21484375 26.55664062 C-1.03676818 31.7841626 -1.03676818 31.7841626 -5.27734375 32.734375 C-8.64751346 31.82534788 -9.7552775 30.6272161 -11.9375 27.9375 C-13.88032478 25.71021852 -13.88032478 25.71021852 -16 24 C-19.89459074 23.78918149 -19.89459074 23.78918149 -23 25 C-23.33 23.68 -23.66 22.36 -24 21 C-18.921875 17.6796875 -18.921875 17.6796875 -17 17 C-13.68993291 18.08611577 -11.63396171 20.14934746 -9.25 22.625 C-8.63640625 23.25664062 -8.0228125 23.88828125 -7.390625 24.5390625 C-6.93171875 25.02117187 -6.4728125 25.50328125 -6 26 C-2.09714233 24.41332422 0.33520982 21.86649519 3.25 18.875 C4.14203125 17.96492188 5.0340625 17.05484375 5.953125 16.1171875 C6.62859375 15.41851562 7.3040625 14.71984375 8 14 C7.60167969 13.54109375 7.20335937 13.0821875 6.79296875 12.609375 C5.18554015 10.7477302 3.59200008 8.87484273 2 7 C1.360625 6.2575 0.72125 5.515 0.0625 4.75 C-0.288125 4.1725 -0.63875 3.595 -1 3 C-0.67 2.01 -0.34 1.02 0 0 Z" transform="translate(197,120)"/><path fill="#5F82F4" d="M0 0 C0 1.32 0 2.64 0 4 C-1.56054688 5.52392578 -1.56054688 5.52392578 -3.71875 6.9453125 C-4.48574219 7.46480469 -5.25273438 7.98429687 -6.04296875 8.51953125 C-6.85378906 9.04933594 -7.66460937 9.57914063 -8.5 10.125 C-10.09768309 11.18419531 -11.69166035 12.24900923 -13.28125 13.3203125 C-14.34956055 14.02051514 -14.34956055 14.02051514 -15.43945312 14.73486328 C-15.95443359 15.1523584 -16.46941406 15.56985352 -17 16 C-17 16.66 -17 17.32 -17 18 C-15.38540507 19.35243484 -15.38540507 19.35243484 -13.28125 20.6796875 C-12.51425781 21.19660156 -11.74726562 21.71351562 -10.95703125 22.24609375 C-9.3225994 23.32965191 -7.68457614 24.40781273 -6.04296875 25.48046875 C-5.27597656 25.99996094 -4.50898437 26.51945312 -3.71875 27.0546875 C-3.00654297 27.52374512 -2.29433594 27.99280273 -1.56054688 28.47607422 C-1.04556641 28.97896973 -0.53058594 29.48186523 0 30 C0 31.32 0 32.64 0 34 C-3.69997823 33.44882805 -6.08191985 32.54253301 -9.1015625 30.34765625 C-9.83890625 29.81849609 -10.57625 29.28933594 -11.3359375 28.74414062 C-12.09132813 28.18919922 -12.84671875 27.63425781 -13.625 27.0625 C-15.13795089 25.96995522 -16.65096903 24.87750356 -18.1640625 23.78515625 C-18.82873535 23.29926025 -19.4934082 22.81336426 -20.17822266 22.31274414 C-21.76030647 21.17271939 -23.37747086 20.08168609 -25 19 C-25 17.68 -25 16.36 -25 15 C-22.84093162 13.1583536 -20.78867681 11.61804049 -18.4375 10.0625 C-17.82841797 9.64548828 -17.21933594 9.22847656 -16.59179688 8.79882812 C-15.35763395 7.95385097 -14.11846709 7.11613809 -12.87451172 6.28564453 C-11.59933335 5.41105619 -10.34591631 4.50406132 -9.11376953 3.56982422 C-4.40471997 0 -4.40471997 0 0 0 Z" transform="translate(54,53)"/><path fill="#4F98F4" d="M0 0 C3.68193655 0.55209016 6.08215251 1.45129519 9.1015625 3.6171875 C9.83890625 4.14183594 10.57625 4.66648437 11.3359375 5.20703125 C12.46902344 6.03267578 12.46902344 6.03267578 13.625 6.875 C14.388125 7.41769531 15.15125 7.96039063 15.9375 8.51953125 C19.18584443 10.85036085 22.23224349 13.10141579 25 16 C22.77905224 21.37796097 18.1946176 23.92418364 13.625 27.25 C12.76132813 27.8996875 11.89765625 28.549375 11.0078125 29.21875 C10.1725 29.83234375 9.3371875 30.4459375 8.4765625 31.078125 C7.3330835 31.91972168 7.3330835 31.91972168 6.16650391 32.77832031 C4 34 4 34 0 34 C0.04549084 31.23516804 0.46853827 29.52682948 2.45654297 27.55615234 C4.40718235 26.02824578 6.39963015 24.59688552 8.4375 23.1875 C9.47874023 22.43436523 9.47874023 22.43436523 10.54101562 21.66601562 C15.69338861 18 15.69338861 18 18 18 C14.12876815 13.77683798 9.54277849 10.82860496 4.78125 7.7109375 C2.921875 6.4375 2.921875 6.4375 0 4 C0 2.68 0 1.36 0 0 Z" transform="translate(86,53)"/><path fill="#48A5F4" d="M0 0 C0.495 2.97 0.495 2.97 1 6 C0.28199219 5.7834375 -0.43601563 5.566875 -1.17578125 5.34375 C-16.99344907 1.08893524 -32.81241545 1.7398845 -48 8 C-48.99 7.01 -49.98 6.02 -51 5 C-39.8060943 -7.59753024 -14.18595082 -3.62820401 0 0 Z" transform="translate(91,5)"/><path fill="#35AEF4" d="M0 0 C3.30546278 2.02078647 6.4487793 4.06223071 9 7 C9 8.32 9 9.64 9 11 C5.8841873 10.64390712 4.22113175 10.17813391 1.75 8.1875 C-5.54453607 2.38502812 -12.65102727 1.51219524 -21.7421875 1.2734375 C-25 1 -25 1 -28 -1 C-23.98554092 -9.02891817 -5.98038352 -2.81381557 0 0 Z" transform="translate(168,58)"/><path fill="#834BF4" d="M0 0 C16.17 0 32.34 0 49 0 C49 0.33 49 0.66 49 1 C45.7 1.33 42.4 1.66 39 2 C45.93 2.495 45.93 2.495 53 3 C53 3.33 53 3.66 53 4 C35.51 4 18.02 4 0 4 C0 2.68 0 1.36 0 0 Z" transform="translate(45,216)"/><path fill="#5A8EF4" d="M0 0 C1.32 0 2.64 0 4 0 C3.05930183 6.26839061 0.00064393 11.66856079 -2.78222656 17.28515625 C-3.74991477 19.24982695 -4.69128217 21.22581313 -5.6328125 23.203125 C-6.24841489 24.4539064 -6.86555061 25.70393455 -7.484375 26.953125 C-8.03834961 28.08911133 -8.59232422 29.22509766 -9.16308594 30.39550781 C-11 33 -11 33 -13.71972656 33.87792969 C-14.84846191 33.93835449 -14.84846191 33.93835449 -16 34 C-15.44368501 29.25928693 -14.09099371 25.75726957 -11.875 21.54296875 C-11.56804199 20.9545369 -11.26108398 20.36610504 -10.94482422 19.75984192 C-9.97097013 17.89820311 -8.98548678 16.0430019 -8 14.1875 C-7.33781693 12.92290527 -6.67635138 11.65793456 -6.015625 10.39257812 C-1.18656087 1.18656087 -1.18656087 1.18656087 0 0 Z" transform="translate(76,53)"/><path fill="#7C5FF4" d="M0 0 C-0.33 1.65 -0.66 3.3 -1 5 C-1.64066406 5.08636719 -2.28132813 5.17273438 -2.94140625 5.26171875 C-8.95851061 6.23916193 -13.74979508 7.44769718 -18 12 C-19.69194472 14.60575449 -21.20798733 17.23166101 -22.640625 19.98828125 C-23.08921875 20.65214844 -23.5378125 21.31601563 -24 22 C-24.99 22 -25.98 22 -27 22 C-28.12864861 18.61405417 -28.00116807 18.27654852 -26.5 15.25 C-22.49182871 7.83351978 -17.37278218 3.49308687 -9.4453125 0.64453125 C-6.13114814 -0.22901048 -3.40466931 -0.2960582 0 0 Z" transform="translate(54,142)"/><path fill="#8957F4" d="M0 0 C1.32 0.33 2.64 0.66 4 1 C4 4.3 4 7.6 4 11 C1.61862907 12.19068546 -0.09692021 12.17180637 -2.75 12.3125 C-7.50603365 12.73739061 -10.19940961 14.01382184 -14 17 C-15.33333333 17.66666667 -16.66666667 18.33333333 -18 19 C-18.66 19.66 -19.32 20.32 -20 21 C-20 18 -20 18 -18.57421875 16.28125 C-17.95160156 15.6934375 -17.32898438 15.105625 -16.6875 14.5 C-16.07261719 13.9121875 -15.45773438 13.324375 -14.82421875 12.71875 C-14.22222656 12.1515625 -13.62023437 11.584375 -13 11 C-12.20529297 10.18015625 -12.20529297 10.18015625 -11.39453125 9.34375 C-8.25685778 6.32033355 -5.16621095 6.92284795 -1 7 C-1.020625 6.030625 -1.04125 5.06125 -1.0625 4.0625 C-1 1 -1 1 0 0 Z" transform="translate(26,163)"/><path fill="#39B0F4" d="M0 0 C1.953125 0.2421875 1.953125 0.2421875 4 1 C8.00246537 8.1472596 7.49212423 16.02190914 7 24 C6.67 24.99 6.34 25.98 6 27 C5.01 27 4.02 27 3 27 C1.83639355 23.50918066 1.74316623 20.4885048 1.5625 16.8125 C1.26253057 11.30865553 0.48503833 6.30370832 -1 1 C-0.67 0.67 -0.34 0.34 0 0 Z" transform="translate(180,74)"/><path fill="#765BF3" d="M0 0 C0.97211426 -0.02126953 1.94422852 -0.04253906 2.94580078 -0.06445312 C3.86345215 -0.06896484 4.78110352 -0.07347656 5.7265625 -0.078125 C6.54979004 -0.0874707 7.37301758 -0.09681641 8.22119141 -0.10644531 C10.84739246 0.32817876 11.71803049 1.22310552 13.375 3.25 C10.03506822 4.91996589 6.29473736 4.39556074 2.625 4.375 C1.35076172 4.36992432 1.35076172 4.36992432 0.05078125 4.36474609 C-20.19838294 4.20107804 -20.19838294 4.20107804 -24.625 1.25 C-16.42392096 0.38347089 -8.24185189 0.09156117 0 0 Z" transform="translate(105.625,215.75)"/><path fill="#7268F4" d="M0 0 C-0.33 1.65 -0.66 3.3 -1 5 C-2.62414378 5.19477739 -4.24936423 5.38059458 -5.875 5.5625 C-6.77992187 5.66691406 -7.68484375 5.77132812 -8.6171875 5.87890625 C-11 6 -11 6 -13 5 C-13 4.01 -13 3.02 -13 2 C-8.49646738 0.24252386 -4.82360189 -0.19294408 0 0 Z" transform="translate(54,142)"/><path fill="#5498F4" d="M0 0 C-0.66 0.66 -1.32 1.32 -2 2 C-2 2.99 -2 3.98 -2 5 C-5.08809695 6.76462683 -6.23312136 7 -10 7 C-9.9375 4.6875 -9.9375 4.6875 -9 2 C-2.7826087 -1.39130435 -2.7826087 -1.39130435 0 0 Z" transform="translate(54,19)"/></svg>