<svg xmlns="http://www.w3.org/2000/svg" width="180" height="180" version="1.1"><path fill="#D50D2E" d="M0 0 C59.4 0 118.8 0 180 0 C180 59.4 180 118.8 180 180 C120.6 180 61.2 180 0 180 C0 120.6 0 61.2 0 0 Z" transform="translate(0,0)"/><path fill="#FEFDFD" d="M0 0 C0.82951172 -0.00386719 1.65902344 -0.00773437 2.51367188 -0.01171875 C3.37669922 -0.00011719 4.23972656 0.01148437 5.12890625 0.0234375 C5.98806641 0.01183594 6.84722656 0.00023438 7.73242188 -0.01171875 C8.56322266 -0.00785156 9.39402344 -0.00398438 10.25 0 C11.00595459 0.00338379 11.76190918 0.00676758 12.54077148 0.01025391 C15.54652707 0.55278443 16.69115334 1.03084255 18.69140625 3.3984375 C19.25806159 6.55818597 19.15550135 9.67818402 19.08203125 12.87890625 C19.07800293 13.70152954 19.07397461 14.52415283 19.06982422 15.3717041 C19.04890276 18.44334226 18.99305697 21.51466237 18.94140625 24.5859375 C18.85890625 31.4540625 18.77640625 38.3221875 18.69140625 45.3984375 C43.11140625 45.3984375 67.53140625 45.3984375 92.69140625 45.3984375 C92.57271514 31.71112597 92.57271514 31.71112597 92.42114258 18.02416992 C92.41238129 16.30908771 92.4047365 14.59399927 92.3984375 12.87890625 C92.37541565 11.5416449 92.37541565 11.5416449 92.35192871 10.17736816 C92.35138489 8.89883972 92.35138489 8.89883972 92.35083008 7.59448242 C92.34083733 6.48528694 92.34083733 6.48528694 92.3306427 5.35368347 C92.7943461 2.84052989 93.70712318 1.95863543 95.69140625 0.3984375 C97.71264648 0.01025391 97.71264648 0.01025391 100 0 C100.82951172 -0.00386719 101.65902344 -0.00773437 102.51367188 -0.01171875 C103.37669922 -0.00011719 104.23972656 0.01148437 105.12890625 0.0234375 C105.98806641 0.01183594 106.84722656 0.00023438 107.73242188 -0.01171875 C108.56322266 -0.00785156 109.39402344 -0.00398438 110.25 0 C111.00595459 0.00338379 111.76190918 0.00676758 112.54077148 0.01025391 C115.32586602 0.51295572 116.62024841 1.48239663 118.69140625 3.3984375 C119.19477081 5.45870113 119.19477081 5.45870113 119.19934082 7.87034607 C119.21062012 8.78583221 119.22189941 9.70131836 119.23352051 10.64454651 C119.22542358 11.646707 119.21732666 12.64886749 119.20898438 13.68139648 C119.21599365 14.73854858 119.22300293 15.79570068 119.23022461 16.8848877 C119.24786647 20.38836742 119.2361585 23.89104293 119.22265625 27.39453125 C119.22534957 29.82446956 119.22923065 32.25440682 119.23425293 34.68434143 C119.24015656 39.781283 119.23155759 44.87794447 119.21289062 49.97485352 C119.19011316 56.51341038 119.20321176 63.05131011 119.22718048 69.5898428 C119.24162516 74.60924747 119.23703826 79.62849601 119.22666931 84.64790535 C119.22399774 87.05889018 119.22728682 89.4698891 119.23658752 91.88085747 C119.24672943 95.24964888 119.23128312 98.61737226 119.20898438 101.98608398 C119.2170813 102.98622025 119.22517822 103.98635651 119.23352051 105.01679993 C119.15063576 111.76487629 119.15063576 111.76487629 116.79347229 115.01686096 C114.39855077 116.59091588 113.09748509 116.91269302 110.25 116.9296875 C109.41919922 116.93484375 108.58839844 116.94 107.73242188 116.9453125 C106.44368164 116.92210937 106.44368164 116.92210937 105.12890625 116.8984375 C104.26587891 116.91390625 103.40285156 116.929375 102.51367188 116.9453125 C101.68416016 116.94015625 100.85464844 116.935 100 116.9296875 C99.24517334 116.92517578 98.49034668 116.92066406 97.71264648 116.91601562 C95.69140625 116.3984375 95.69140625 116.3984375 93.94042969 114.95019531 C92.02647563 111.03998268 92.32221674 107.33383234 92.3984375 103.0390625 C92.40145874 102.23710449 92.40447998 101.43514648 92.40759277 100.60888672 C92.42325266 97.62193883 92.46513676 94.63517483 92.50390625 91.6484375 C92.56578125 84.9659375 92.62765625 78.2834375 92.69140625 71.3984375 C68.60140625 71.3984375 44.51140625 71.3984375 19.69140625 71.3984375 C19.88898862 84.33780754 19.88898862 84.33780754 20.1418457 97.27612305 C20.1564554 98.90411743 20.16919494 100.53213013 20.1796875 102.16015625 C20.20526733 102.99824829 20.23084717 103.83634033 20.25720215 104.6998291 C20.26042596 109.02940519 20.09382513 110.85429965 17.44458008 114.43652344 C14.655475 116.42404214 13.50321183 117.03058026 10.15234375 117.02734375 C8.91097656 117.03024414 8.91097656 117.03024414 7.64453125 117.03320312 C6.79375 117.00935547 5.94296875 116.98550781 5.06640625 116.9609375 C4.20789062 116.97189453 3.349375 116.98285156 2.46484375 116.99414062 C-2.27813292 116.93855887 -2.27813292 116.93855887 -4.30859375 116.3984375 C-6.93184456 113.53869107 -7.68407247 111.65169868 -7.68954468 107.79954529 C-7.69800415 106.88123932 -7.70646362 105.96293335 -7.71517944 105.01679993 C-7.70910675 104.01666367 -7.70303406 103.0165274 -7.69677734 101.98608398 C-7.7020343 100.92717957 -7.70729126 99.86827515 -7.71270752 98.77728271 C-7.72591946 95.27454919 -7.71716553 91.77226946 -7.70703125 88.26953125 C-7.70905148 85.83862724 -7.71196249 83.40772383 -7.71572876 80.9768219 C-7.72015362 75.88170604 -7.7137151 70.78674792 -7.69970703 65.69165039 C-7.68260619 59.15200227 -7.69246131 52.61272325 -7.71042442 46.07308865 C-7.72125001 41.05374862 -7.71782167 36.03449652 -7.71004105 31.01515388 C-7.70803613 28.60334289 -7.71050849 26.19152397 -7.71747971 23.77972221 C-7.72507485 20.41339753 -7.71351703 17.04767609 -7.69677734 13.68139648 C-7.70285004 12.67923599 -7.70892273 11.6770755 -7.71517944 10.64454651 C-7.70671997 9.72906036 -7.6982605 8.81357422 -7.68954468 7.87034607 C-7.6884136 7.07450324 -7.68728252 6.27866041 -7.68611717 5.45870113 C-6.87949472 1.05670962 -4.13047335 0.01851637 0 0 Z" transform="translate(34.30859375,31.6015625)"/></svg>